<?xml version="1.0"?><svg version="1.2" baseProfile="tiny-ps" viewBox="0 0 159 159" xmlns="http://www.w3.org/2000/svg" xmlns:xlink="http://www.w3.org/1999/xlink"><title>baderidris.com</title><g><g fill="#fcfcfc" transform="matrix(.1 0 0 -.1 0 159)"><path d="M0 795V0h1590v1590H0V795z"/></g><g fill="#dfdfdf" transform="matrix(.1 0 0 -.1 0 159)"><path d="M0 795V0h1590v1590H0V795zm1421 587 29-32V515l-18-21c-9-12-27-27-39-33l-22-11H203l-26 20-26 21-11 37-10 37v360c0 198 3 377 6 397l7 38 24 24c14 14 34 27 46 29 12 3 282 4 600 3l579-1 29-33zM995 120l6-10-198 2-198 2 190 6c105 3 191 7 192 8s5-2 8-8zM210 1379c-13-6-28-15-32-22l-8-12V933l1-413 21-20 22-20h1165l20 26 21 27-3 408-2 408-18 18-18 18-572 2-572 2-25-10zm537-56c-81-2-213-2-295 0-81 1-14 3 148 3s229-2 147-3zm536-30c-40-2-107-2-150 0l-78 3h300l-72-3zM227 1013l-3-78v310l3-77c2-43 2-113 0-155zm333 167-11-7 3-97 3-96h-15v219l16-6 16-6-12-7zm168-94c-2-1-12-8-23-16l-20-15 13 17 14 17-8 13-8 13 17-14c10-8 16-14 15-15zm555-103c-40-2-107-2-150 0l-78 3h300l-72-3zm-323-86c0-2-10-12-22-23l-23-19 19 23c18 21 26 27 26 19zM548 750c3 0 30 23 59 52 29 28 55 50 57 47 3-3-26-36-64-74l-70-69 2 74 2 75 3-52c2-29 7-53 11-53z"/></g><g fill="#ccc" transform="matrix(.1 0 0 -.1 0 159)"><path d="M0 795V0h1590v1590H0V795zm1410 610c13-11 29-34 36-52l14-32V538l-15-32c-8-17-25-38-37-46l-23-15-575-2-575-3-32 11-33 10-20 26-20 26v845l30 31 30 30 28 4c15 2 284 4 598 3l572-1 22-20zM1000 115v-15H611l-5 9c-3 4-3 11 1 15 3 3 93 6 200 6h193v-15zM190 1360l-20-20V611l68-4 67-3-67-2-68-2v-77l21-19 21-19 547-3c300-2 565 0 589 3l42 6 16 30 15 30-3 22-3 22-480 5-480 5 483 3 482 2v699l-11 28c-5 15-16 31-22 35l-12 8H210l-20-20zm402-40-314-5-24-28c-13-15-24-24-24-19 0 13 23 38 45 50l20 11 305-2 305-1-313-6zm368-40 10-19V903l-26-27-27-26h-21l-21 1 32 14 31 13 11 21 11 20v352l-27 26-28 26 22-12c13-6 27-20 33-31zm328 13c-43-2-113-2-155 0l-78 3h310l-77-3zM227 997c-1-45-3-5-3 88v170l3-88c2-48 2-125 0-170zm416 148c48-27 87-53 87-57 0-7-172-108-184-108-3 0-6 50-6 111v111l8-4c5-1 48-25 95-53zm640 48c-40-2-107-2-150 0l-78 3h300l-72-3zm0-110c-40-2-107-2-150 0l-78 3h300l-72-3zm5-100c-43-2-113-2-155 0l-78 3h310l-77-3zM304 859l21-1-17-5-17-4-20 11c-11 6-26 20-32 33l-12 22 28-27 28-28 21-1zm979 24c-40-2-107-2-150 0l-78 3h300l-72-3zm-743-83v-50h7c4 0 31 23 59 51 29 28 56 50 60 48 5-2-23-35-63-72l-71-69-4 71-3 71h15v-50zm10 290v-90h11c14 0 149 80 149 89 0 7-142 91-154 91-3 0-6-40-6-90z"/></g><g fill="#a4a3a4" transform="matrix(.1 0 0 -.1 0 159)"><path d="m190 1360-20-20V610l73-2 72-2-70-5-70-6-3-28-3-28 16-25 15-24h1175l12 8c6 4 17 20 23 36l11 29-6 18-6 19-477 2-477 3 480 5 480 5v723l-19 21-19 21H210l-20-20zm752-59 33-29V923l-13-24c-7-14-23-31-35-39l-22-14-120-4-120-4-67-66-68-66v132l-126 3-126 4-29 33-29 32v362l29 29 29 29h632l32-29zm346-8c-43-2-113-2-155 0l-78 3h310l-77-3zm0-100c-43-2-113-2-155 0l-78 3h310l-77-3zm67-103 6-10h-301v20h289l6-10zm-67-107c-42-2-114-2-160 0l-83 3h320l-77-3zm67-103-6-10h-278l-6 10-6 10h302l-6-10zM367 604c-3-3-12-4-19-1l-13 5 19 1c11 1 17-2 13-5zm60 0c-3-3-12-4-19-1l-13 5 19 1c11 1 17-2 13-5zm-164 692-28-24V908l28-24 28-24h249V760h13c7 0 35 23 62 50l49 50h121l120 1 16 12c9 7 21 22 27 34l12 22v333l-29 29-29 29H291l-28-24zm383-148c51-29 94-55 94-58s-21-17-48-32c-26-15-71-41-99-58l-53-30v115c0 63 3 115 6 115s48-24 100-52zm-96-57c0-50 3-91 6-91 11 0 154 84 154 89s-129 81-151 89l-9 4v-91zm127-753c-36-62-72-126-81-142l-15-29 10-19 10-18 197 2 197 3 3 22 3 23-57 102c-31 57-66 118-78 135l-21 33H742l-65-112z"/></g><g fill="#616161" transform="matrix(.1 0 0 -.1 0 159)"><path d="m194 1355-24-24 2-358 3-358 68-3 67-3v-19H170v-47l21-27 20-26h1166l16 18 17 19v63H450v20h960v730l-20 20-20 20H219l-25-25zm722-30 35-14 15-37 15-36-3-169-3-169-28-27-27-28-126-3-126-4-65-69c-36-38-69-69-74-69h-9v140H305l-35 18-35 17-13 40-14 40 4 157 3 157 29 30c16 16 38 32 50 34 11 2 148 5 304 6l283 1 35-15zm439-25 6-10h-312l6 10 6 10h288l6-10zm5-110v-10h-299l-6 10-6 10h311v-10zm0-100v-10h-310v20h310v-10zm-5-100 6-10h-312l6 10 6 10h288l6-10zm5-110v-10h-310v20h310v-10zM370 600c0-5-6-10-14-10s-18 5-21 10l-6 10h41v-10zm60 0v-10h-40v20h40v-10zm-140 709c-14-5-32-19-40-32l-15-22-3-145-4-144 11-38 12-38 22-12 22-13 125-5 125-5 3-49 3-49 52 51 52 51 127 3 128 3 22 23 23 23 3 167 3 167-20 31-19 31-32 7c-18 3-155 6-304 5l-271-1-25-9zm388-177c34-20 62-40 62-44 0-7-190-118-203-118h-7v113c0 63 3 117 7 120l6 7 36-21c20-12 64-38 99-57zm-128-42v-80h11c15 0 139 70 139 79 0 8-125 81-140 81h-10v-80zm182-667c-10-15-47-77-81-136l-62-108 3-22 3-22 192-3 192-2 11 20 11 21-79 137-80 137-45 3-45 3-20-28z"/></g><g fill="#0b0b0b" transform="matrix(.1 0 0 -.1 0 159)"><path d="m197 1352-17-19V621l68-3 67-3v-20l-67-3-68-3v-59l20-20 20-20h1150l20 20 20 20v60H450v30h960v717l-18 16-19 17H213l-16-18zm749-46 34-34V919l-11-22c-6-12-21-30-33-39l-21-18H675l-77-77-78-78v155H278l-35 35-34 34 3 186 3 187 33 29 32 29h632l34-34zm414-11v-15h-310v30h310v-15zm0-100v-15h-310v30h310v-15zm0-110v-16l-152 3-151 3-5 13-4 12h312v-15zm0-100v-15h-310v30h310v-15zm0-100v-15h-310v8c0 19 20 22 162 22h148v-15zM375 605v-10l-22-3-23-3v32l23-3 22-3v-10zm60 0v-10l-22-3-23-3v32l23-3 22-3v-10zm-166 686-24-19V912l19-21 19-21h118c64 0 124-3 133-6l16-6v-88h8c4 0 30 23 57 50l49 50h246l20 20 20 20v359l-26 20-27 21H292l-23-19zm414-157c37-21 67-41 67-45 0-6-206-129-216-129-2 0-4 59-4 131v131l43-25c23-13 72-42 110-63zm-123-45v-81l58 32c31 18 62 36 67 42l10 9-15 9c-8 5-39 23-67 40l-53 30v-81zm107-784-78-135 11-20 11-20 187 2 187 3 3 25 2 25-73 125-73 125-50 3-49 3-78-136z"/></g></g></svg>