<svg xmlns="http://www.w3.org/2000/svg" viewBox="0 0 671.93 517.89"><defs><style>.cls-1{fill:#fea55f;}</style></defs><g id="Layer_2" data-name="Layer 2"><g id="Layer_1-2" data-name="Layer 1"><g id="Layer_2-2" data-name="Layer 2"><g id="Layer_1-2-2" data-name="Layer 1-2"><g id="thank_you" data-name="thank you"><path class="cls-1" d="M574.62,384.56a64.89,64.89,0,0,0-36.54-15.94c-8.61-.92-16.89,0-24.24,5.49-3.74,2.8-4.75,5.28-2.13,9.51,10.73,17.36,1.16,29.8-11,36.8-8.38,4.84-17.73,5.47-27.06,5.89-25.48,1.15-50.53-2.63-75.43-7.35-28.45-5.4-56.76-11.55-85.23-16.89-12.38-2.32-25-3.44-37.71-5.13-.07-.94-.18-1.74-.18-2.54.13-14.16.57-28.32.35-42.48-.37-24.48-1.05-49-1.9-73.43-.16-3.48-.9-8-3.16-10.15-5.85-5.52-12.11-11.23-19.27-14.61-16.16-7.62-23.39-3-24.39,14.9-.53,10.12.31,20.31,0,30.45a28.11,28.11,0,0,1-2.8,11.31c-4.46,8.92-9.4,17.6-14.4,26.27-5.71,10-11.57,19.83-17.5,29.66-1,1.69-2.68,3-4.91,5.4-.67-4-1.53-6.52-1.47-9.07q.61-27.19,1.55-54.37c.39-12.3,1.39-24.6,1.39-36.89,0-3.24-1.87-7.81-4.38-9.46a94.71,94.71,0,0,0-20.41-10c-6-2.11-11.67-.66-16.67,4.6-9.76,10.33-21.95,16.91-36.19,18.53-32,3.66-48-14.27-44.5-42.81a108.38,108.38,0,0,1,11.92-37.36c3.09-5.88,5.81-12,8.34-18.13,2.62-6.34,1.11-10.44-4.76-13.93A28.58,28.58,0,0,0,63.19,159c-21,2.78-35.68,13.83-41.41,34.5-9.37,33.81-3.8,65.41,17,93.81,8.57,11.71,20.65,18.19,35.3,19.19,12.37.88,24-2.39,34.53-8.32,12.5-7,24.27-15.38,36.1-23,0,1.09-.05,3.25,0,5.4.62,22.47.57,45,2.11,67.39,1.27,18.41,9.43,33,27.88,40.3,8.39,3.35,15.49,2.63,22-3.58,2.16-2.06,4.57-4.06,6.09-6.56,7.88-12.91,15.5-26,23.21-39,.52-.84,1-1.68,1.52-2.52.77,18.76.87,37.23.77,55.69-.07,11.35-.08,11.64-10.59,15.35-34.18,12.08-55,54.68-28.89,95.08,3.09,4.77,8.22,8.89,13.32,11.59,15.53,8.21,36.61,1.83,48.11-14C261.41,485,267,467.5,269.66,449c1.25-8.68,2.43-17.32,3.68-26.32,2.19.14,4,.27,5.81.37,22.47,1.21,44,6.67,65.47,13,32.87,9.64,65.25,21.2,99.17,27,26.49,4.53,53,8.49,80,6.33,18.35-1.48,35.37-7,49.43-19.23C592.27,433.56,593,400.67,574.62,384.56ZM55.88,177a32.65,32.65,0,0,0-14.29,17.37c-8.1,22-8.5,44.19-.5,66.38.4,1.09,1.25,2.14,1.25,3.23a11.73,11.73,0,0,1-.93,3.48c-1.1-.52-2.79-.75-3.22-1.6-2.3-4.6-4.87-9.18-6.3-14.07-6.49-22.13-3.56-43.6,6.51-63.91,2.73-5.5,8.27-9.74,13-14,1.43-1.3,4.53-.73,6.87-1,.09.67.19,1.34.28,2A23.66,23.66,0,0,1,55.88,177ZM165.79,371.88c-1.29-.92-3.07-1.55-3.8-2.79-6.76-11.41-7.73-24.16-8.11-37a63.89,63.89,0,0,1,.11-7.95c.13-1,1.54-1.82,2.36-2.72.77.76,2,1.4,2.23,2.31a30.88,30.88,0,0,1,1.06,6.34c.58,8.12.64,16.33,1.73,24.33.58,4.33,3,8.38,4.31,12.63C166.13,368.52,165.79,370.26,165.79,371.88Zm20.71,88.33-1.5-.41c.19-10.43,2.81-20.17,9.56-28.57C199.29,425.37,207.38,421,212,422c-5.75,5.54-12.37,10-16.61,16.43S189.36,452.88,186.5,460.21Zm10.73-1.54c2.31-13.58,14.33-25.19,29-28.94-1.46,19.72-3.6,39.14-11.2,57.41-2.57,6.08-5.1,6.53-10,2C196,480.76,195.32,469.76,197.23,458.67Zm37.24,9.42c-2.36,8.1-4.51,16.34-7.75,24.1-1.57,3.74-5,7-8.21,9.74a12.23,12.23,0,0,1-14.89.34c-1.46-1-2.32-2.72-3.46-4.12l.93-1.21a39.26,39.26,0,0,1,5.26,2c4.74,2.57,8.94,1.62,11.88-2.51a85.87,85.87,0,0,0,8.46-14.51c2.53-5.69,4.15-11.77,6.71-19.28C234,465.23,234.84,466.86,234.47,468.09Zm7.45-140.7a8.89,8.89,0,0,1,.08,2.47,32.54,32.54,0,0,1-1.54,3.78c-.85-1.21-2.31-2.35-2.45-3.64-1.19-11.22-2.53-22.45-3.19-33.72a248.45,248.45,0,0,1-.17-27.83c.31-6,4.3-8,7.68-6.12-1,4.36-2.49,7.84-2.41,11.28C240.36,291.54,241.21,309.46,241.92,327.39ZM475.6,441.33c-1,0-2.85-1.57-2.85-2.48,0-1.22,1.35-2.47,2.72-4.66h0c1.52,2.15,2.89,3.35,2.9,4.57C478.39,439.67,476.6,441.31,475.6,441.33Zm58.57-40.8A41.5,41.5,0,0,1,489,438a8,8,0,0,1-2.19-.93c0-.45-.08-.9-.13-1.36l5.37-1.86c6.57-2.37,13.28-4.41,19.66-7.2,7.64-3.35,12.79-9.47,13.87-17.73.95-7.32.38-14.84.55-22.26a33.48,33.48,0,0,1,.58-4.12c1.49.76,3.86,1.16,4.33,2.33,1.52,3.8,3.31,7.86,3.31,11.86C534.35,398,534.29,399.26,534.17,400.53Z"/><path class="cls-1" d="M663.48,230.05c-6.54-18.74-20.54-31.86-39.54-37.56C602.22,186,591,194.8,586,214c-3.17,12.22.2,19.33,11.2,25.22,4.11,2.2,8.29,4.31,12.2,6.82,8.75,5.59,15,13.27,17.46,23.47,5.08,20.79,3.58,41.06-6.3,60.21a40.13,40.13,0,0,1-9.8,11.7c-5,4.26-10.73,3.55-14.23-2-3.67-5.79-7.08-12.19-8.75-18.79-3.1-12.24-4.69-24.84-7.19-37.24-5.26-26.13-9.51-52.47-16.4-78.13-7.27-27.05-17.76-52.95-46.76-65.28a16.18,16.18,0,0,1,1.62-.93c27.52-11.1,49.07-29.83,66.44-53.36,4.13-5.59,6.49-13.24,7.49-20.24,2.24-15.7-5.73-25.69-20.56-26.21C567.07,39,561.39,41,556.23,43c-6.11,2.36-9,7.17-8.86,14.17.18,10-1.49,19.67-8.49,27.51q-12.11,13.65-24.5,27c-2.75,3-6,5.52-10,9.15.29-4.12.51-6.87.64-9.7.86-14.13,1.14-28.37,2.74-42.37,1.22-10.73-2.63-17.52-11.63-22.92-7.17-4.31-14.27-6.09-22.34-4.14-5.73,1.39-7.92,3.8-8.24,9.69-.39,7.35-.85,14.68-.73,22,.35,20.32,1.07,40.63,1.47,60.95.53,27.82.84,55.64,1.53,83.45a85.54,85.54,0,0,0,2.44,17.72c1.31,5.47,5.79,8.13,11.19,8,5.63-.13,6.64-4.32,7.36-8.49,2.71-15.57,5.37-31.16,7.83-46.77,1.07-6.77,1.62-13.63,2.41-20.44l1.9-.45c2.89,7,6.34,13.81,8.59,21,6.37,20.35,7.84,41.51,9,62.63,1.45,26.06,4.62,51.71,14,76.31a85.14,85.14,0,0,0,27.74,37.78c20,15.46,46.51,15.25,69.14.36,15.77-10.38,26-25.23,33.13-42.23C675.48,292.42,674.31,261,663.48,230.05Zm-39,15c-1-.3-2.24-.31-2.92-.94q-8.82-8.09-17.47-16.34c-5.61-5.35-6.84-13.22-3.17-19.62,1-1.71,2.07-3.38,3.07-5.06l2.22,1.11c.31,1.31,1.29,2.93.85,3.9-4.26,9,0,14.42,6.74,20,4.46,3.69,7.51,9.1,11,13.88C625.26,242.57,624.62,244,624.49,245ZM557.91,53.13c1.55-4.4,5-5.34,9.55-2.34-7.12,2.42-5.62,8.92-7.49,13.92a44,44,0,0,1-5.12,9.5c-.82,1.24-2.92,1.49-4.56,2.24C553,68,555.28,60.5,557.91,53.13Zm-84.16,48.35c-.08-14.6-.21-29.2,0-43.8,0-1.89,1.87-3.74,3.35-5.33,2.34,5.93.47,48.89-2,52.31C474.47,103.21,473.78,102.35,473.75,101.48Zm5.13,115.14c0,.78-.59,1.54-1.15,2.89-1.29-2-2.07-2.61-2.07-3.25,0-8,0-15.9.19-23.9,0-.84,1.22-1.65,1.87-2.47.66.63,1.88,1.27,1.88,1.89C479.48,200.06,479.2,208.35,478.88,216.62ZM557.21,339.9c-1-.25-2.54-.15-3-.8-4-5.66-8.7-11.06-11.51-17.29-5.89-13-7.59-27.19-8.83-41.31-.68-7.46-.77-15-1-22.46a35.39,35.39,0,0,1,.54-5.24l1.65-.31a26.88,26.88,0,0,1,1.8,4.77q3,19.25,5.87,38.51c1.85,12.4,4.74,24.46,12.14,35a24.07,24.07,0,0,1,3,5.7C558.21,337.42,557.47,338.75,557.21,339.9Z"/><path class="cls-1" d="M155.44,69.11c2.31-10.53,4.63-20.35,6.54-30.35.32-1.67-.59-4.82-1.8-5.36-9.53-4.25-19-9.23-29-11.68-14.6-3.57-23.89,3.41-26.46,18.15-1.56,9-2.55,18.12-3.92,28a31.19,31.19,0,0,1-20.51-13c-5-6.94-4.5-14.4,1.89-20.14,3.15-2.84,7.16-4.75,10.88-6.91,4.41-2.56,5.39-5.18,1.78-8.63A84,84,0,0,0,80,7.67C60.8-3.68,42-2.5,24.8,11.68,5.78,27.34-3.63,47.79,1.29,72.28,6.07,96,22,111.05,45.56,115.88c13.52,2.76,27.75,2.26,41.67,3,4.22.22,8.49-.39,12.8-.62a26.77,26.77,0,0,1,.29,2.68c-.49,27.7,1.68,55.26,5.36,82.7,2.86,21,18.21,38,36.86,41,5.49.94,7.09-.38,6.49-6-1-8.93-3.27-17.86-3.08-26.74.65-30.13,2-60.25,3.43-90.35.51-10.43,1-10.59,11.26-12.68,3.17-.64,4-1.9,4.12-4.9.44-11.74,1.09-23.47,1.68-35.57ZM22.78,85.49C15.71,79.07,11.47,71.21,11,61.14c.61-8.14,1.68-16.62,7.92-23.21,1-1.09,3-1.27,4.57-1.87,0,1.63.51,3.53-.14,4.86-7,14.35-8.41,28.27,2.27,41.67.71.9.42,2.58.6,3.9C25.05,86.17,23.57,86.21,22.78,85.49ZM119.4,203.66l-2,.43c-.68-1.53-1.75-3-1.94-4.6-1.18-8.37-2.56-16.75-3.1-25.18-.84-13.1-1.12-26.25-1.47-39.38-.08-2.69.59-5.4.92-8.11l1.63-.22c.49,1.46,1.32,3,1.41,4.46.7,12.44,1.1,24.91,1.91,37.34.64,9.94,1.78,19.84,2.64,29.76C119.53,200,119.4,201.83,119.4,203.66Zm4-171.41c-5.06,0-6.46,3.13-7.06,7.33a91.93,91.93,0,0,1-1.8,9.3,25.34,25.34,0,0,1-2.15,4.45h0c-3.21-5.86-1.88-20,2.35-23.19,2.23-1.71,5.67-2,8.67-2.45.85-.13,1.85,1.49,2.85,2.31C125.27,30.79,124.32,32.25,123.38,32.25Z"/><path class="cls-1" d="M495.18,364.26c-6.59,4.31-9.1,12.16-17.66,14.42-.5-6.06-1.54-11.48-1.29-16.84.94-19.8,2.5-39.57,3.44-59.37.71-14.91-8.93-26.46-23.65-29.16-6.19-1.13-9.3.41-10.58,6.72-1.45,7.13-2,14.46-2.8,21.72-.84,7.78-.13,16-2.48,23.27-4.77,14.68-11.12,28.84-16.89,43.19a24.53,24.53,0,0,1-2.52,3.93l-1.65-.2c-.52-4.69-1.72-9.39-1.43-14,1.25-19.94,2.25-39.95,4.72-59.75,1.57-12.38-3.26-20.14-13-26.14-15.07-9.36-24.65-5.58-27.48,11.78-1.87,11.46-2.1,23.18-3.1,34.78-.13,1.47.17,3.68-.65,4.28-4.6,3.34-9.47,6.3-14.75,9.71-.65-7.9-1.14-14.5-1.73-21.09-2.07-22.83-12.14-39.76-34.69-47.83-13.36-4.75-26.27-2.31-34.91,7.25-12,13.26-14.65,37.37-4.65,52.26a29.65,29.65,0,0,1,5.39,19.56,30.74,30.74,0,0,0,.09,4.5c.86,11.37,2.58,22.6,8.76,32.45,6.78,10.8,17.22,15.7,29.63,15.31,12.21-.39,18.53-8.74,22.21-19.32,2.59-7.53,4.6-15.27,7-22.88a8.82,8.82,0,0,1,2.27-4.13c5-4,10.22-7.8,15.22-11.52.89,8.69,1.33,17.84,2.79,26.8,1.22,7.21,3.52,14.32,9.8,19.12,7.27,5.56,15.36,9.53,24.43,10.67,3,.37,7.28-.55,9-2.55,4.79-5.6,8.77-12,12.63-18.28,1.73-2.84,2.4-6.31,3.56-9.49,2.78,12.45,10.21,21.25,19.87,28.6,5.73,4.36,11.31,4.45,17.63,1.1,10.16-5.38,14.1-15.11,18.27-24.74C496.38,367.45,495.55,366,495.18,364.26Zm-200.2-82c2.93-5.46,8.14-7.74,12.85-4.92h0c-11.59,7.16-10.26,18.89-10.28,30.3C290.5,304.14,289.63,292.27,295,282.27Zm14.5,92c-1-.72-2.45-1.24-2.76-2.17-2.21-6.38-4.28-12.79-6-19.3-.43-1.54.62-3.47,1-5.22l1.78-.11c.68,1.85,1.5,3.67,2.08,5.57,1.51,5.76,2.95,11.54,4.24,17.35C310.09,371.61,309.61,373,309.48,374.28Zm21.82,1.91a19.43,19.43,0,0,1-3.67-8.05c-.1-.53-.18-1.05-.25-1.58-.49-3.92.09-7.82.38-11.88h0l13.42,1.16-9.9,20.33Zm15.09-43.83h0c-3-1.35-4.8-2-6.49-2.9-4-2.07-5.61-4.52-3.76-9.58,4.14-11.32,3-13.32-7.33-19.78-1.26-.8-2.54-3.09-2.32-4.44.72-4.33,1.05-9.61,6.43-10.72,1.86-.38,5.5,1.64,6.31,3.47a111.46,111.46,0,0,1,6,17.88c1,3.82,1,7.91,1.16,11.91.14,4.29,0,8.58,0,14.16Zm49.81,40.73c-1.62-1-3.72-1.69-4.72-3.13a13.32,13.32,0,0,1-1.68-6.07c-.09-.93,1-2,2.29-4.15,1.76,3.52,3.17,5.71,4,8.11C396.56,369.45,396.2,371.33,396.2,373.09Zm1.05-92.71c-6.1,11.67-4.89,24.61-6.71,37a9.84,9.84,0,0,1-.58,2.89,2.43,2.43,0,0,1-1.76,1.28,2.26,2.26,0,0,1-1.49-1.58c-1-13.13-1.71-26.24,4.2-38.62.86-1.8,1.81-3.57,2.72-5.35l2.44,1.45h0C396.52,278.44,397.57,279.77,397.25,280.38Zm62,5.3c-1.81,8-3.67,16-5.67,24-.37,1.49-1.76,2.69-2.68,4l-2.31-3,0,0c.87-7.4,1.19-13.58,2.45-19.67.61-2.82,3-5.36,4.79-7.82.4-.48,2.13-.35,3.06,0C459.32,283.3,459.45,284.86,459.27,285.68Z"/><path class="cls-1" d="M462.32,234.05c-4.26-10.28-4.48-21-4.1-31.92.35-9.82.54-19.66.14-29.47-.22-4.69-.7-10.18-3.22-13.8A42.13,42.13,0,0,0,433.84,143c-6.84-2.32-12.88-1.34-17.49,4.46s-9.18,11.64-14,17.75c-.1-1.17-.28-2.24-.28-3.31-.25-12.26-1.5-14-13.37-17a47.81,47.81,0,0,0-9.37-1.36c-8.15-.42-12.07,2.48-12.67,10.58-1,13.27-.72,26.64-2,39.86-.65,6.71-3.57,13.2-5.46,19.79l-1.71-.49c.69-9.79,1.26-19.59,2.1-29.36.37-4.32-1.23-7.65-4.7-9.72s-7.16-3.75-10.9-5.75c.89-1.4,1.75-2.81,2.67-4.18,5.6-8.44,5.63-12.9-2.54-18.66a119.9,119.9,0,0,0-26.06-14.24c-11.48-4.38-18.63-1.89-25.63,8.19-4.78,6.88-9.24,14.48-11.5,22.48-3.85,13.55-6.27,27.56-8.52,41.5-2.4,14.85,7.28,31,21.09,36.85,5.53,2.33,10.58,1.58,14.43-3.19,3.31-4.1,5.88-8.82,8.53-13.41a92.8,92.8,0,0,0,3.84-8.73c1.3,3.52,2.19,6.18,3.25,8.78,3.29,8.13,8.72,14.09,17.18,17,10.06,3.47,15.28,1.27,19.63-8.36,1.85-4.08,3.73-8.15,6.09-13.33,1.35,5.53,2.28,9.74,3.4,13.91,1.71,6.43,5.26,9,12.93,9.43,5.9.34,8.41-1.43,11-8,4.85-12.26,5.85-25.18,6.85-38.18.21-2.78.28-6,1.66-8.19,4.57-7.26,9.67-14.2,14.57-21.26l.89.31c-.22,1.8-.53,3.61-.66,5.42-.79,11.61-2.38,23.24-2.1,34.83C415.32,221,419.7,233,433.7,239c8.35,3.54,16.87,3.26,25.5,1.46C462.9,239.64,463.65,237.27,462.32,234.05ZM297.47,152.53c-1.39,3.18-2.45,6.51-3.84,9.69a30.11,30.11,0,0,1-2.82,4.19c-3.05-10.67,5.64-26.9,15.2-29.26,2.27-.57,4.93.45,7.41.75l-.07,1.57c-.49.39-1,1.08-1.47,1.12C304.2,141.12,300.26,146.18,297.47,152.53Zm7.37,67.19a6.41,6.41,0,0,1-1.5,1.3c-.23.14-.62.07-1.56.14-1.93-19.86,1.05-39.1,4.24-59.68,1.92,3.23,3.09,5.66,4.68,7.79,2.65,3.54,5.61,6.86,8.35,10.34a5.37,5.37,0,0,1,1.31,2.83C320.84,197.2,313.09,208.57,304.84,219.72Zm31.05,10.62a127.52,127.52,0,0,1-7.51-12.49c-.42-.8.67-2.39,1.07-3.62l1.63-.67s0,0,0,0h.05l0,0a13.06,13.06,0,0,0,.92,2.26c2.39,4,4.93,7.86,7.19,11.86.58,1,.32,2.56.44,3.87C338.35,231.17,336.47,231.2,335.89,230.34Zm38.56-58.58h-.05c-3.19-5.34-1.71-16,2.5-19.07,2.49-1.81,5.06-2.08,8.06,1.19C375.45,156.35,378.8,166.06,374.45,171.76Zm57.8,56.67a10.12,10.12,0,0,1-4.52-3c-5.84-7.15-6.34-15.52-5.73-24.07l2-.6c1.11,3.86,2.43,7.68,3.47,11.65,1.19,4.8,2.91,9.11,7.32,12,1,.63,1.24,2.39,1.84,3.63C435.15,228.21,433.53,228.84,432.25,228.43Z"/><path class="cls-1" d="M268.32,234.75c-4.19-9.77-4.45-20.06-4.19-30.42s.63-20.7.2-31c-.2-4.83-.79-10.66-3.57-14.16-5.75-7.24-13-13.32-22.4-15.94-5.27-1.46-9.92-1.06-13.72,3.14-4.88,5.38-9.65,10.86-14.83,16.71,1.35-9.62,2.57-18.68,3.89-27.72C217.53,109,220.27,82.49,228.62,57a62.91,62.91,0,0,0,2.22-12.24c.59-5.16-1.59-8.87-6.29-11.39a71.25,71.25,0,0,0-26.11-7.79c-8.95-1-14.58,2.84-18.58,10.35a82.5,82.5,0,0,0-9,33,679.56,679.56,0,0,0,3.08,126.67c1,9,3.63,17.91,6,26.73C182,230,187,236,193.6,240.28c2.44,1.58,6.28,1.84,9.28,1.27,1.14-.22,2-4.39,2.14-6.8.74-13.14,1.13-26.29,1.74-39.44.09-2,.09-4.26,1.09-5.79,4.88-7.45,10.08-14.7,16-23.24-.3,3-.5,4.6-.61,6.18-.82,11.94-2.41,23.91-2.19,35.82s3.62,23.08,15.22,29.66c9.21,5.26,19,5.47,29,3.2C269,240.3,269.67,237.93,268.32,234.75ZM199.54,39.8c-6.82,1.31-10.39,6-11.76,12.2A154.54,154.54,0,0,0,184,75.6c-1.06,17.12-1.37,34.29-2.06,51.43a42.85,42.85,0,0,1-.94,5.51l-1.55.07a23.41,23.41,0,0,1-.92-3.78c-1.6-22.29-2.42-44.63.51-66.83a59.52,59.52,0,0,1,6.62-19.66,11.44,11.44,0,0,1,.91-1.55,11,11,0,0,1,15.34-2.61C201,38.78,200.35,39.62,199.54,39.8Zm37.1,183.25a2.63,2.63,0,0,1-2.06-.43c-2.71-3.83-5.17-7.77-7.71-11.65l0,0c1.17-1.85,1.59-3,2.44-3.51.42-.25,2,.52,2.33,1.19,2.08,3.74,4.06,7.54,5.83,11.44C237.76,220.86,237.1,222.15,236.64,223.05Zm18.05,6.49c-2.26,1.13-3.6,2.31-4.16,2a24.41,24.41,0,0,1-4.31-3.46c.8-.84,2-2.54,2.33-2.38,1.81.76,3.4,2,6.18,3.83Z"/><path class="cls-1" d="M430.4,64.51C413.54,54.69,395.32,49,375.85,48.69c-21.44-.33-43-.5-64.34,1-25.21,1.78-50.3,5.4-75.41,8.4-1.82.22-4.5,2-4.92,3.62-2.81,10.42-5.07,21-7.81,32.81l35.4-8.47c30.39-7.32,61-12.75,92.39-10.46,14.59,1.06,28.68,4.06,40.86,12.9,8.45,6.13,12.92,14.13,11.72,24.84-.28,2.48-.24,5-.34,7.48-.2,4.88,2.39,7.91,6.74,9.36,16.17,5.38,42.53-4,42.53-29.17C452.69,84.51,444.4,72.64,430.4,64.51Zm-36,14.93c-1.44-.54-2.53-2-3.76-3.12.89-.92,1.83-2.64,2.66-2.58,1.41.09,2.74,1.29,5.07,2.55C396.33,78,395,79.67,394.38,79.44Zm24.38,36c-.3.86-1.95,1.19-3,1.76-.53-1.09-1.75-2.4-1.48-3.24,3.58-11-1.46-19.27-8-27.27-1-1.16-.91-3.15-1.32-4.76,1.63.36,3.53.29,4.84,1.13,7.93,5.11,11.18,12.83,12,23.32A82.74,82.74,0,0,1,418.76,115.42Z"/><path class="cls-1" d="M626.09,81.9c-9.87,1.65-18,6.69-25,13.59-12.24,12-21.27,26-25.07,42.9-.32,1.42,0,3.74.83,4.42s3,.12,4.45-.43c3.54-1.41,6.83-3.65,10.47-4.6,10.3-2.68,20.79-4.6,31.06-7.37,6.68-1.8,13.53-3.84,19.53-7.09,7.51-4,12.11-10.79,12.41-18.16C654.93,89.66,641.3,79.38,626.09,81.9Zm8.12,12.16c-13.23.59-20.28,10.66-28.72,18.59-1.56,1.47-2.68,3.43-4.31,4.8-.78.7-2.26.49-3.43.7,0-1.06-.37-2.43.14-3.12,3.23-4.37,6.23-9.08,10.23-12.74a106.44,106.44,0,0,1,15.21-11.15c4.59-2.92,8.62-2.17,12.13,1.63C634.89,93.38,634.56,94,634.21,94.06Z"/><path class="cls-1" d="M125,382.33c-8.57-14.86-21.2-24.62-38-28.35-7.77-1.72-15.69-1.23-22.6,3.45-6,4.06-11.22,9.2-10.2,17.06s7.6,10.73,14.52,12.52a23.42,23.42,0,0,0,3.9.78c9,.68,17.92,1.3,26.87,1.94v-.24c6.81.34,13.62.79,20.44,1S128.28,388.09,125,382.33Zm-49.71-4.45c-7.74-3.5-9.58-8.45-5.48-14.31.78-1.11,2.12-1.84,4.56-3.84v0c.34,2.78,1.11,4.51.61,5.56-2.11,4.11-.46,6.34,3,8.49,1.29.81,1.75,3,2.59,4.5C78.77,378.19,76.77,378.57,75.26,377.88Zm12.4-9.24c-1.12-.94-2.8-1.69-3.17-2.86-.27-.85,1.19-2.29,2.4-4.29v0c1.44,1.83,2.88,2.83,2.91,3.89S88.43,367.56,87.66,368.64Z"/><path class="cls-1" d="M144.36,405.45c-3.26-.55-6.57-.83-9.85-1.23-10,.42-19.6,2-28.26,7.12-8,4.73-13.51,11.38-14.23,21-.53,6.31,1.09,12,7,15.43s11.88,2,16.07-2.42c10.76-11.28,20.9-23.15,31.16-34.9C148.26,408.13,147.62,406,144.36,405.45ZM111.8,437.39c-2.53,1.29-8.64-2.86-9.53-6.38-1-3.69,0-6.76,2.87-7.69,3,3.73,5.61,6.68,7.72,10C113.4,434.19,112.67,437,111.8,437.39Zm4.46-16.94c-.83-1.05-2.42-2.09-2.29-3.11s1.71-2.28,2.87-2.57c.68-.17,1.78,1.36,3.19,2.55Z"/><path class="cls-1" d="M632.76,152.66a15.17,15.17,0,0,0-3.91-2.18c-12.78-4.25-24.57-1.89-35.42,5.75-1.27.89-2.1,2.38-3.77,4.38,9.34,3.8,17.57,7.2,25.85,10.56a50.18,50.18,0,0,0,6.1,2.16,17.14,17.14,0,0,0,4.46.42c5.93-.06,10.85-3.29,12.27-7.69S637.48,156.08,632.76,152.66Zm-16,8.26-1.07-.14c-2.61-.38-5.32-1-8.93-1.69a10.77,10.77,0,0,1,8.71-2.31,3.77,3.77,0,0,1,.6.16,3.22,3.22,0,0,1,1.92,1.34c.3.51-.87,2.6-1.22,2.64Z"/><path class="cls-1" d="M606.73,159.09c3.68-3.22,9.94-3.11,11.28-.81.3.51-.89,2.68-1.23,2.64C613.8,160.57,610.86,159.9,606.73,159.09Z"/><path class="cls-1" d="M341.24,355.84l-9.91,20.35,0,0,9.9-20.33Z"/></g></g></g></g></g></svg>